<svg width="220" height="276" viewBox="0 0 220 276" fill="none" xmlns="http://www.w3.org/2000/svg">
<circle cx="110" cy="110" r="109" stroke="#F0F0F0" stroke-width="2" stroke-dasharray="10 10"/>
<circle cx="109.5" cy="109.5" r="102.5" fill="#5D3128"/>
<mask id="mask0_518_237" style="mask-type:alpha" maskUnits="userSpaceOnUse" x="7" y="7" width="205" height="205">
<circle cx="109.5" cy="109.5" r="102.5" fill="#C4C4C4"/>
</mask>
<g mask="url(#mask0_518_237)">
<path d="M108.628 95.9786V5.69141H45.8191C33.1702 5.69141 -12.1915 47.1276 -18.2979 66.3191C-24.4043 85.5106 -92.0106 140.032 -105.096 162.713C-118.181 185.394 128.255 251.691 148.755 253C165.155 254.047 193.39 184.23 205.457 149.191L108.628 95.9786Z" fill="#FEAD04"/>
</g>
<circle cx="109.5" cy="109.5" r="79.5" fill="white"/>
<path d="M87.4131 127.84C79.9731 127.84 74.0131 125.36 69.5331 120.4L76.8531 113.08C79.9731 116.28 83.3131 117.88 86.8731 117.88C88.5131 117.88 89.8131 117.5 90.7731 116.74C91.7731 115.94 92.2731 114.86 92.2731 113.5C92.2731 112.14 91.6731 111.08 90.4731 110.32C89.2731 109.56 87.5931 109.18 85.4331 109.18H80.5131L78.8331 103.12L88.4931 94.42H72.4131V85H102.773V93.34L92.7531 101.92C99.9931 103.52 103.613 107.5 103.613 113.86C103.613 118.06 102.093 121.44 99.0531 124C96.0531 126.56 92.1731 127.84 87.4131 127.84ZM141.659 121.54C138.099 125.74 133.399 127.84 127.559 127.84C121.719 127.84 117.019 125.76 113.459 121.6C109.939 117.4 108.179 112.2 108.179 106C108.179 99.88 109.979 94.72 113.579 90.52C117.179 86.28 121.879 84.16 127.679 84.16C133.519 84.16 138.199 86.26 141.719 90.46C145.279 94.66 147.059 99.84 147.059 106C147.059 112.12 145.259 117.3 141.659 121.54ZM122.039 114.34C123.479 116.46 125.359 117.52 127.679 117.52C129.999 117.52 131.859 116.46 133.259 114.34C134.659 112.18 135.359 109.4 135.359 106C135.359 102.64 134.619 99.88 133.139 97.72C131.699 95.56 129.839 94.48 127.559 94.48C125.239 94.48 123.379 95.54 121.979 97.66C120.579 99.78 119.879 102.56 119.879 106C119.879 109.4 120.599 112.18 122.039 114.34Z" fill="#FEAD04"/>
<path d="M44.3666 248.192C46.4626 248.192 47.7426 247.424 48.9106 246.208L47.6466 244.928C46.6866 245.824 45.8066 246.384 44.4306 246.384C42.2866 246.384 40.7346 244.592 40.7346 242.4C40.7346 240.176 42.2866 238.416 44.4306 238.416C45.7106 238.416 46.6706 238.976 47.5666 239.808L48.8306 238.352C47.7586 237.328 46.5106 236.608 44.4466 236.608C41.0546 236.608 38.6706 239.216 38.6706 242.4C38.6706 245.648 41.1026 248.192 44.3666 248.192ZM52.5631 248H54.5151V241.216H57.2351V239.552H49.8431V241.216H52.5631V248ZM58.7707 250.56H60.7067V246.688C61.2987 247.472 62.1787 248.176 63.5707 248.176C65.5867 248.176 67.5067 246.592 67.5067 243.792C67.5067 240.96 65.5707 239.376 63.5707 239.376C62.2107 239.376 61.3307 240.08 60.7067 240.96V239.552H58.7707V250.56ZM63.1227 246.496C61.8107 246.496 60.6587 245.424 60.6587 243.792C60.6587 242.144 61.8107 241.056 63.1227 241.056C64.4347 241.056 65.5387 242.128 65.5387 243.76C65.5387 245.456 64.4507 246.496 63.1227 246.496ZM76.5774 248V242.992C76.5774 240.736 75.3614 239.424 72.8654 239.424C71.4894 239.424 70.5774 239.712 69.6494 240.128L70.1774 241.68C70.9454 241.36 71.6494 241.152 72.5934 241.152C73.9374 241.152 74.6734 241.792 74.6734 242.96V243.12C74.0174 242.912 73.3614 242.768 72.3374 242.768C70.3694 242.768 68.9134 243.664 68.9134 245.536C68.9134 247.264 70.3214 248.176 71.9214 248.176C73.2014 248.176 74.0814 247.648 74.6574 246.96V248H76.5774ZM74.7054 244.944C74.7054 246 73.7454 246.72 72.4654 246.72C71.5534 246.72 70.8334 246.272 70.8334 245.472C70.8334 244.624 71.5534 244.128 72.7694 244.128C73.5214 244.128 74.2094 244.272 74.7054 244.464V244.944ZM78.8801 248H80.8161V244.592H84.5441V248H86.4801V239.552H84.5441V242.976H80.8161V239.552H78.8801V248ZM88.4473 250.32C90.0633 250.192 90.9113 249.44 90.9113 247.664V245.808H88.7833V248H89.5993C89.5993 248.064 89.6153 248.112 89.6153 248.176C89.6153 248.896 89.1513 249.328 88.2393 249.504L88.4473 250.32ZM98.0051 248H102.389C104.309 248 105.509 247.136 105.509 245.712C105.509 244.512 104.789 243.888 103.765 243.6C104.485 243.28 105.125 242.736 105.125 241.664C105.125 240.368 104.021 239.552 102.341 239.552H98.0051V248ZM99.9091 246.464V244.352H102.005C103.045 244.352 103.541 244.768 103.541 245.376C103.541 246.032 103.045 246.464 102.101 246.464H99.9091ZM99.9091 243.04V241.04H101.925C102.789 241.04 103.157 241.456 103.157 242C103.157 242.608 102.709 243.04 101.893 243.04H99.9091ZM112.239 248H114.159V245.968L115.535 244.512L118.095 248H120.383L116.831 243.104L120.111 239.552H117.839L114.159 243.6V239.552H112.239V248ZM125.74 248.192C128.348 248.192 130.268 246.192 130.268 243.792C130.268 241.344 128.364 239.376 125.772 239.376C123.18 239.376 121.26 241.376 121.26 243.792C121.26 246.224 123.164 248.192 125.74 248.192ZM125.772 246.512C124.268 246.512 123.196 245.264 123.196 243.792C123.196 242.288 124.188 241.072 125.74 241.072C127.26 241.072 128.332 242.304 128.332 243.792C128.332 245.28 127.34 246.512 125.772 246.512ZM134.047 248H135.999V241.216H138.719V239.552H131.327V241.216H134.047V248ZM144.271 248.192C146.879 248.192 148.799 246.192 148.799 243.792C148.799 241.344 146.895 239.376 144.303 239.376C141.711 239.376 139.791 241.376 139.791 243.792C139.791 246.224 141.695 248.192 144.271 248.192ZM144.303 246.512C142.799 246.512 141.727 245.264 141.727 243.792C141.727 242.288 142.719 241.072 144.271 241.072C145.791 241.072 146.863 242.304 146.863 243.792C146.863 245.28 145.871 246.512 144.303 246.512ZM150.771 250.56H152.707V246.688C153.299 247.472 154.179 248.176 155.571 248.176C157.587 248.176 159.507 246.592 159.507 243.792C159.507 240.96 157.571 239.376 155.571 239.376C154.211 239.376 153.331 240.08 152.707 240.96V239.552H150.771V250.56ZM155.123 246.496C153.811 246.496 152.659 245.424 152.659 243.792C152.659 242.144 153.811 241.056 155.123 241.056C156.435 241.056 157.539 242.128 157.539 243.76C157.539 245.456 156.451 246.496 155.123 246.496ZM161.489 248H165.345C167.329 248 168.561 246.928 168.561 245.184C168.561 243.344 167.105 242.512 165.201 242.512H163.425V239.552H161.489V248ZM163.425 246.432V244.016H165.057C166.049 244.016 166.625 244.432 166.625 245.184C166.625 246 166.065 246.432 165.089 246.432H163.425ZM169.841 248H171.777V239.552H169.841V248ZM173.472 248H175.536L177.6 245.04L179.68 248H181.792L178.672 243.664L181.664 239.552H179.6L177.648 242.336L175.696 239.552H173.584L176.576 243.712L173.472 248ZM8.70038 272.56H10.6364V268.688C11.2284 269.472 12.1084 270.176 13.5004 270.176C15.5164 270.176 17.4364 268.592 17.4364 265.792C17.4364 262.96 15.5004 261.376 13.5004 261.376C12.1404 261.376 11.2604 262.08 10.6364 262.96V261.552H8.70038V272.56ZM13.0524 268.496C11.7404 268.496 10.5884 267.424 10.5884 265.792C10.5884 264.144 11.7404 263.056 13.0524 263.056C14.3644 263.056 15.4684 264.128 15.4684 265.76C15.4684 267.456 14.3804 268.496 13.0524 268.496ZM26.5071 270V264.992C26.5071 262.736 25.2911 261.424 22.7951 261.424C21.4191 261.424 20.5071 261.712 19.5791 262.128L20.1071 263.68C20.8751 263.36 21.5791 263.152 22.5231 263.152C23.8671 263.152 24.6031 263.792 24.6031 264.96V265.12C23.9471 264.912 23.2911 264.768 22.2671 264.768C20.2991 264.768 18.8431 265.664 18.8431 267.536C18.8431 269.264 20.2511 270.176 21.8511 270.176C23.1311 270.176 24.0111 269.648 24.5871 268.96V270H26.5071ZM24.6351 266.944C24.6351 268 23.6751 268.72 22.3951 268.72C21.4831 268.72 20.7631 268.272 20.7631 267.472C20.7631 266.624 21.4831 266.128 22.6991 266.128C23.4511 266.128 24.1391 266.272 24.6351 266.464V266.944ZM32.9378 268.512C31.5458 268.512 30.4898 267.36 30.4898 265.92C30.4898 264.464 31.4818 263.312 32.9058 263.312C34.3138 263.312 35.3698 264.48 35.3698 265.92C35.3698 267.36 34.3938 268.512 32.9378 268.512ZM32.9058 270.192C35.4498 270.192 37.3058 268.224 37.3058 265.888C37.3058 263.568 35.4498 261.776 33.2738 261.776C31.5138 261.776 30.4578 262.624 30.0258 263.36C30.1218 262.24 30.6178 261.312 32.2498 260.96L36.8578 259.952L36.5378 258.4L31.9298 259.36C28.8578 260 28.5538 262.64 28.5538 265.264C28.5538 268.384 30.1698 270.192 32.9058 270.192ZM43.2945 270.192C45.9025 270.192 47.8225 268.192 47.8225 265.792C47.8225 263.344 45.9185 261.376 43.3265 261.376C40.7345 261.376 38.8145 263.376 38.8145 265.792C38.8145 268.224 40.7185 270.192 43.2945 270.192ZM43.3265 268.512C41.8225 268.512 40.7505 267.264 40.7505 265.792C40.7505 264.288 41.7425 263.072 43.2945 263.072C44.8145 263.072 45.8865 264.304 45.8865 265.792C45.8865 267.28 44.8945 268.512 43.3265 268.512ZM51.6021 270H53.5541V263.216H56.2741V261.552H48.8821V263.216H51.6021V270ZM64.8978 270V264.992C64.8978 262.736 63.6818 261.424 61.1858 261.424C59.8098 261.424 58.8978 261.712 57.9698 262.128L58.4978 263.68C59.2658 263.36 59.9698 263.152 60.9138 263.152C62.2578 263.152 62.9938 263.792 62.9938 264.96V265.12C62.3378 264.912 61.6818 264.768 60.6578 264.768C58.6898 264.768 57.2338 265.664 57.2338 267.536C57.2338 269.264 58.6418 270.176 60.2418 270.176C61.5218 270.176 62.4018 269.648 62.9778 268.96V270H64.8978ZM63.0258 266.944C63.0258 268 62.0658 268.72 60.7858 268.72C59.8738 268.72 59.1538 268.272 59.1538 267.472C59.1538 266.624 59.8738 266.128 61.0898 266.128C61.8418 266.128 62.5298 266.272 63.0258 266.464V266.944ZM74.7044 270.192C77.2644 270.192 78.9444 268.192 78.9444 265.792C78.9444 263.36 77.2804 261.392 74.7364 261.392C72.4804 261.392 70.9124 262.96 70.5764 264.976H69.1204V261.552H67.2004V270H69.1204V266.576H70.5764C70.8804 268.64 72.4484 270.192 74.7044 270.192ZM74.7364 268.512C73.2804 268.512 72.4324 267.28 72.4324 265.792C72.4324 264.288 73.2004 263.072 74.7044 263.072C76.1604 263.072 77.0244 264.304 77.0244 265.792C77.0244 267.28 76.2404 268.512 74.7364 268.512ZM82.7271 270H84.6791V263.216H87.3991V261.552H80.0071V263.216H82.7271V270ZM93.7316 270H95.6676V266.592H99.3956V270H101.332V261.552H99.3956V264.976H95.6676V261.552H93.7316V270ZM110.851 270V264.992C110.851 262.736 109.635 261.424 107.139 261.424C105.763 261.424 104.851 261.712 103.923 262.128L104.451 263.68C105.219 263.36 105.923 263.152 106.867 263.152C108.211 263.152 108.947 263.792 108.947 264.96V265.12C108.291 264.912 107.635 264.768 106.611 264.768C104.643 264.768 103.187 265.664 103.187 267.536C103.187 269.264 104.595 270.176 106.195 270.176C107.475 270.176 108.355 269.648 108.931 268.96V270H110.851ZM108.979 266.944C108.979 268 108.019 268.72 106.739 268.72C105.827 268.72 105.107 268.272 105.107 267.472C105.107 266.624 105.827 266.128 107.043 266.128C107.795 266.128 108.483 266.272 108.979 266.464V266.944ZM113.154 270H125.186V261.552H123.25V268.336H120.13V261.552H118.21V268.336H115.09V261.552H113.154V270ZM127.622 270H129.446L133.462 264.368V270H135.334V261.552H133.51C132.166 263.44 130.838 265.328 129.51 267.216V261.552H127.622V270ZM146.576 270.192C149.184 270.192 151.104 268.192 151.104 265.792C151.104 263.344 149.2 261.376 146.608 261.376C144.016 261.376 142.096 263.376 142.096 265.792C142.096 268.224 144 270.192 146.576 270.192ZM146.608 268.512C145.104 268.512 144.032 267.264 144.032 265.792C144.032 264.288 145.024 263.072 146.576 263.072C148.096 263.072 149.168 264.304 149.168 265.792C149.168 267.28 148.176 268.512 146.608 268.512ZM157.203 268.512C155.811 268.512 154.755 267.36 154.755 265.92C154.755 264.464 155.747 263.312 157.171 263.312C158.579 263.312 159.635 264.48 159.635 265.92C159.635 267.36 158.659 268.512 157.203 268.512ZM157.171 270.192C159.715 270.192 161.571 268.224 161.571 265.888C161.571 263.568 159.715 261.776 157.539 261.776C155.779 261.776 154.723 262.624 154.291 263.36C154.387 262.24 154.883 261.312 156.515 260.96L161.123 259.952L160.803 258.4L156.195 259.36C153.123 260 152.819 262.64 152.819 265.264C152.819 268.384 154.435 270.192 157.171 270.192ZM164.936 270H168.936C170.936 270 172.168 268.928 172.168 267.184C172.168 265.344 170.712 264.512 168.808 264.512H166.856V261.552H162.6V263.2H164.936V270ZM166.856 268.432V266.016H168.664C169.656 266.016 170.216 266.432 170.216 267.184C170.216 268 169.672 268.432 168.696 268.432H166.856ZM177.729 270.192C179.281 270.192 180.385 269.568 181.185 268.608L180.049 267.6C179.377 268.256 178.705 268.608 177.761 268.608C176.513 268.608 175.537 267.84 175.329 266.464H181.537C181.553 266.368 181.569 266.048 181.569 265.92C181.569 263.488 180.209 261.376 177.521 261.376C175.105 261.376 173.393 263.36 173.393 265.776C173.393 268.416 175.281 270.192 177.729 270.192ZM175.313 265.184C175.489 263.872 176.321 262.96 177.505 262.96C178.785 262.96 179.521 263.936 179.649 265.184H175.313ZM183.513 270H185.433V267.968L186.809 266.512L189.369 270H191.657L188.105 265.104L191.385 261.552H189.113L185.433 265.6V261.552H183.513V270ZM194.805 270H196.757V263.216H199.477V261.552H192.085V263.216H194.805V270ZM201.013 270H204.869C206.853 270 208.085 268.928 208.085 267.184C208.085 265.344 206.629 264.512 204.725 264.512H202.949V261.552H201.013V270ZM202.949 268.432V266.016H204.581C205.573 266.016 206.149 266.432 206.149 267.184C206.149 268 205.589 268.432 204.613 268.432H202.949ZM209.365 270H211.301V261.552H209.365V270Z" fill="black"/>
</svg>
