<svg width="254" height="276" viewBox="0 0 254 276" fill="none" xmlns="http://www.w3.org/2000/svg">
<circle cx="127" cy="110" r="109" stroke="#F0F0F0" stroke-width="2" stroke-dasharray="10 10"/>
<circle cx="126.5" cy="109.5" r="102.5" fill="#5D3128"/>
<mask id="mask0_518_257" style="mask-type:alpha" maskUnits="userSpaceOnUse" x="24" y="7" width="205" height="205">
<circle cx="126.5" cy="109.5" r="102.5" fill="#C4C4C4"/>
</mask>
<g mask="url(#mask0_518_257)">
<path d="M122.872 91.2872V1H185.681C198.33 1 243.692 42.4362 249.798 61.6277C255.904 80.8191 323.511 135.34 336.596 158.021C349.681 180.702 103.245 247 82.7447 248.309C66.3447 249.355 47.0674 338.539 35 303.5L122.872 91.2872Z" fill="#FEAD04"/>
</g>
<circle cx="126.5" cy="109.5" r="79.5" fill="white"/>
<path d="M66.4312 130H99.6712V120.52H82.3312L89.5312 115.48C95.8312 111.04 99.2512 107.5 99.2512 100.78C99.2512 92.74 92.9512 87.28 83.7712 87.28C75.6112 87.28 71.1712 90.46 66.6712 96.28L74.5312 102.82C77.8312 99.04 80.0512 97.42 82.8712 97.42C85.6912 97.42 87.5512 99.04 87.5512 101.68C87.5512 104.2 86.1112 106.24 82.1512 109.24L66.4312 121.24V130ZM123.733 130.84C135.733 130.84 143.233 120.88 143.233 109C143.233 97 135.793 87.16 123.853 87.16C111.913 87.16 104.353 97.12 104.353 109C104.353 121 111.733 130.84 123.733 130.84ZM123.853 120.52C119.173 120.52 116.053 115.72 116.053 109C116.053 102.16 119.113 97.48 123.733 97.48C128.353 97.48 131.533 102.34 131.533 109C131.533 115.78 128.533 120.52 123.853 120.52ZM167.561 130.84C179.561 130.84 187.061 120.88 187.061 109C187.061 97 179.621 87.16 167.681 87.16C155.741 87.16 148.181 97.12 148.181 109C148.181 121 155.561 130.84 167.561 130.84ZM167.681 120.52C163.001 120.52 159.881 115.72 159.881 109C159.881 102.16 162.941 97.48 167.561 97.48C172.181 97.48 175.361 102.34 175.361 109C175.361 115.78 172.361 120.52 167.681 120.52Z" fill="#FEAD04"/>
<path d="M5.065 248H7.033V243.28H12.377V248H14.345V236.8H12.377V241.456H7.033V236.8H5.065V248ZM24.0853 248V242.992C24.0853 240.736 22.8693 239.424 20.3733 239.424C18.9973 239.424 18.0853 239.712 17.1573 240.128L17.6853 241.68C18.4533 241.36 19.1573 241.152 20.1013 241.152C21.4453 241.152 22.1813 241.792 22.1813 242.96V243.12C21.5253 242.912 20.8693 242.768 19.8453 242.768C17.8773 242.768 16.4213 243.664 16.4213 245.536C16.4213 247.264 17.8293 248.176 19.4293 248.176C20.7093 248.176 21.5893 247.648 22.1653 246.96V248H24.0853ZM22.2133 244.944C22.2133 246 21.2533 246.72 19.9733 246.72C19.0613 246.72 18.3413 246.272 18.3413 245.472C18.3413 244.624 19.0613 244.128 20.2773 244.128C21.0293 244.128 21.7173 244.272 22.2133 244.464V244.944ZM26.3879 248H28.2119L32.2279 242.368V248H34.0999V239.552H32.2759C30.9319 241.44 29.6039 243.328 28.2759 245.216V239.552H26.3879V248ZM36.5285 248H38.4165V242.4L41.0565 246.16L43.7125 242.368V248H45.6645V239.552H43.7445L41.0885 243.472L38.4485 239.552H36.5285V248ZM51.963 248.192C53.515 248.192 54.619 247.568 55.419 246.608L54.283 245.6C53.611 246.256 52.939 246.608 51.995 246.608C50.747 246.608 49.771 245.84 49.563 244.464H55.771C55.787 244.368 55.803 244.048 55.803 243.92C55.803 241.488 54.443 239.376 51.755 239.376C49.339 239.376 47.627 241.36 47.627 243.776C47.627 246.416 49.515 248.192 51.963 248.192ZM49.547 243.184C49.723 241.872 50.555 240.96 51.739 240.96C53.019 240.96 53.755 241.936 53.883 243.184H49.547ZM57.7473 248H59.6833V244.592H63.4113V248H65.3472V239.552H63.4113V242.976H59.6833V239.552H57.7473V248ZM71.7945 248.192C74.4025 248.192 76.3225 246.192 76.3225 243.792C76.3225 241.344 74.4185 239.376 71.8265 239.376C69.2345 239.376 67.3145 241.376 67.3145 243.792C67.3145 246.224 69.2185 248.192 71.7945 248.192ZM71.8265 246.512C70.3225 246.512 69.2505 245.264 69.2505 243.792C69.2505 242.288 70.2425 241.072 71.7945 241.072C73.3145 241.072 74.3865 242.304 74.3865 243.792C74.3865 245.28 73.3945 246.512 71.8265 246.512ZM78.2941 248H82.6781C84.5981 248 85.7981 247.136 85.7981 245.712C85.7981 244.512 85.0781 243.888 84.0541 243.6C84.7741 243.28 85.4141 242.736 85.4141 241.664C85.4141 240.368 84.3101 239.552 82.6301 239.552H78.2941V248ZM80.1981 246.464V244.352H82.2941C83.3341 244.352 83.8301 244.768 83.8301 245.376C83.8301 246.032 83.3341 246.464 82.3901 246.464H80.1981ZM80.1981 243.04V241.04H82.2141C83.0781 241.04 83.4461 241.456 83.4461 242C83.4461 242.608 82.9981 243.04 82.1821 243.04H80.1981ZM94.8196 248V242.992C94.8196 240.736 93.6036 239.424 91.1076 239.424C89.7316 239.424 88.8196 239.712 87.8916 240.128L88.4196 241.68C89.1876 241.36 89.8916 241.152 90.8356 241.152C92.1796 241.152 92.9156 241.792 92.9156 242.96V243.12C92.2596 242.912 91.6036 242.768 90.5796 242.768C88.6116 242.768 87.1556 243.664 87.1556 245.536C87.1556 247.264 88.5636 248.176 90.1636 248.176C91.4436 248.176 92.3236 247.648 92.8996 246.96V248H94.8196ZM92.9476 244.944C92.9476 246 91.9876 246.72 90.7076 246.72C89.7956 246.72 89.0756 246.272 89.0756 245.472C89.0756 244.624 89.7956 244.128 91.0116 244.128C91.7636 244.128 92.4516 244.272 92.9476 244.464V244.944ZM97.1223 248H99.0583V244.592H102.786V248H104.722V239.552H102.786V242.976H99.0583V239.552H97.1223V248ZM107.154 248H108.978L112.994 242.368V248H114.866V239.552H113.042C111.698 241.44 110.37 243.328 109.042 245.216V239.552H107.154V248ZM121.166 238.576C122.526 238.576 123.454 237.712 123.662 236.352L122.494 236.128C122.286 236.8 121.886 237.216 121.166 237.216C120.446 237.216 120.046 236.8 119.838 236.128L118.654 236.352C118.862 237.712 119.806 238.576 121.166 238.576ZM117.294 248H119.118L123.134 242.368V248H125.006V239.552H123.182C121.838 241.44 120.51 243.328 119.182 245.216V239.552H117.294V248ZM132.232 248H136.616C138.536 248 139.736 247.136 139.736 245.712C139.736 244.512 139.016 243.888 137.992 243.6C138.712 243.28 139.352 242.736 139.352 241.664C139.352 240.368 138.248 239.552 136.568 239.552H132.232V248ZM134.136 246.464V244.352H136.232C137.272 244.352 137.768 244.768 137.768 245.376C137.768 246.032 137.272 246.464 136.328 246.464H134.136ZM134.136 243.04V241.04H136.152C137.016 241.04 137.384 241.456 137.384 242C137.384 242.608 136.936 243.04 136.12 243.04H134.136ZM141.669 248H145.525C147.509 248 148.741 246.928 148.741 245.184C148.741 243.344 147.285 242.512 145.381 242.512H143.605V239.552H141.669V248ZM143.605 246.432V244.016H145.237C146.229 244.016 146.805 244.432 146.805 245.184C146.805 246 146.245 246.432 145.269 246.432H143.605ZM150.021 248H151.957V239.552H150.021V248ZM154.388 248H156.324V241.216H159.988V248H161.924V239.552H154.388V248ZM166.085 250.608C167.445 250.608 168.197 249.968 168.869 248.24L172.229 239.552H170.213L168.021 245.824L165.621 239.552H163.557L167.077 248C166.757 248.736 166.421 248.976 165.877 248.976C165.477 248.976 165.093 248.848 164.741 248.656L164.085 250.096C164.677 250.416 165.269 250.608 166.085 250.608ZM177.792 248.192C179.44 248.192 180.416 247.536 181.248 246.608L180.08 245.456C179.472 246.08 178.8 246.512 177.888 246.512C176.4 246.512 175.36 245.296 175.36 243.792V243.76C175.36 242.288 176.384 241.072 177.792 241.072C178.768 241.072 179.392 241.504 179.984 242.128L181.184 240.832C180.4 239.968 179.408 239.376 177.808 239.376C175.28 239.376 173.424 241.392 173.424 243.792V243.824C173.424 246.224 175.28 248.192 177.792 248.192ZM182.95 248H184.87V245.968L186.246 244.512L188.806 248H191.094L187.542 243.104L190.822 239.552H188.55L184.87 243.6V239.552H182.95V248ZM199.523 248V242.992C199.523 240.736 198.307 239.424 195.811 239.424C194.435 239.424 193.523 239.712 192.595 240.128L193.123 241.68C193.891 241.36 194.595 241.152 195.539 241.152C196.883 241.152 197.619 241.792 197.619 242.96V243.12C196.963 242.912 196.307 242.768 195.283 242.768C193.315 242.768 191.859 243.664 191.859 245.536C191.859 247.264 193.267 248.176 194.867 248.176C196.147 248.176 197.027 247.648 197.603 246.96V248H199.523ZM197.651 244.944C197.651 246 196.691 246.72 195.411 246.72C194.499 246.72 193.779 246.272 193.779 245.472C193.779 244.624 194.499 244.128 195.715 244.128C196.467 244.128 197.155 244.272 197.651 244.464V244.944ZM205.697 248.192C207.249 248.192 208.353 247.568 209.153 246.608L208.017 245.6C207.345 246.256 206.673 246.608 205.729 246.608C204.481 246.608 203.505 245.84 203.297 244.464H209.505C209.521 244.368 209.537 244.048 209.537 243.92C209.537 241.488 208.177 239.376 205.489 239.376C203.073 239.376 201.361 241.36 201.361 243.776C201.361 246.416 203.249 248.192 205.697 248.192ZM203.281 243.184C203.457 241.872 204.289 240.96 205.473 240.96C206.753 240.96 207.489 241.936 207.617 243.184H203.281ZM211.482 248H213.37V242.4L216.01 246.16L218.666 242.368V248H220.618V239.552H218.698L216.042 243.472L213.402 239.552H211.482V248ZM227.06 248.192C229.668 248.192 231.588 246.192 231.588 243.792C231.588 241.344 229.684 239.376 227.092 239.376C224.5 239.376 222.58 241.376 222.58 243.792C222.58 246.224 224.484 248.192 227.06 248.192ZM227.092 246.512C225.588 246.512 224.516 245.264 224.516 243.792C224.516 242.288 225.508 241.072 227.06 241.072C228.58 241.072 229.652 242.304 229.652 243.792C229.652 245.28 228.66 246.512 227.092 246.512ZM233.56 248H235.496V241.216H239.544V239.552H233.56V248ZM245.091 248.192C247.699 248.192 249.619 246.192 249.619 243.792C249.619 241.344 247.715 239.376 245.123 239.376C242.531 239.376 240.611 241.376 240.611 243.792C240.611 246.224 242.515 248.192 245.091 248.192ZM245.123 246.512C243.619 246.512 242.547 245.264 242.547 243.792C242.547 242.288 243.539 241.072 245.091 241.072C246.611 241.072 247.683 242.304 247.683 243.792C247.683 245.28 246.691 246.512 245.123 246.512ZM71.6851 270.192C74.2931 270.192 76.2131 268.192 76.2131 265.792C76.2131 263.344 74.3091 261.376 71.7171 261.376C69.1251 261.376 67.2051 263.376 67.2051 265.792C67.2051 268.224 69.1091 270.192 71.6851 270.192ZM71.7171 268.512C70.2131 268.512 69.1411 267.264 69.1411 265.792C69.1411 264.288 70.1331 263.072 71.6851 263.072C73.2051 263.072 74.2771 264.304 74.2771 265.792C74.2771 267.28 73.2851 268.512 71.7171 268.512ZM82.3128 268.512C80.9208 268.512 79.8648 267.36 79.8648 265.92C79.8648 264.464 80.8568 263.312 82.2808 263.312C83.6888 263.312 84.7448 264.48 84.7448 265.92C84.7448 267.36 83.7688 268.512 82.3128 268.512ZM82.2808 270.192C84.8248 270.192 86.6808 268.224 86.6808 265.888C86.6808 263.568 84.8248 261.776 82.6488 261.776C80.8888 261.776 79.8328 262.624 79.4008 263.36C79.4968 262.24 79.9928 261.312 81.6248 260.96L86.2328 259.952L85.9128 258.4L81.3048 259.36C78.2328 260 77.9288 262.64 77.9288 265.264C77.9288 268.384 79.5448 270.192 82.2808 270.192ZM92.6695 270.192C95.2775 270.192 97.1975 268.192 97.1975 265.792C97.1975 263.344 95.2935 261.376 92.7015 261.376C90.1095 261.376 88.1895 263.376 88.1895 265.792C88.1895 268.224 90.0935 270.192 92.6695 270.192ZM92.7015 268.512C91.1975 268.512 90.1255 267.264 90.1255 265.792C90.1255 264.288 91.1175 263.072 92.6695 263.072C94.1895 263.072 95.2615 264.304 95.2615 265.792C95.2615 267.28 94.2695 268.512 92.7015 268.512ZM99.1691 272.56H101.105V268.688C101.697 269.472 102.577 270.176 103.969 270.176C105.985 270.176 107.905 268.592 107.905 265.792C107.905 262.96 105.969 261.376 103.969 261.376C102.609 261.376 101.729 262.08 101.105 262.96V261.552H99.1691V272.56ZM103.521 268.496C102.209 268.496 101.057 267.424 101.057 265.792C101.057 264.144 102.209 263.056 103.521 263.056C104.833 263.056 105.937 264.128 105.937 265.76C105.937 267.456 104.849 268.496 103.521 268.496ZM111.616 272.608C112.976 272.608 113.728 271.968 114.4 270.24L117.76 261.552H115.744L113.552 267.824L111.152 261.552H109.088L112.608 270C112.288 270.736 111.952 270.976 111.408 270.976C111.008 270.976 110.624 270.848 110.272 270.656L109.616 272.096C110.208 272.416 110.8 272.608 111.616 272.608ZM118.443 272.032H120.059L120.251 270H126.171V272.032H127.787L128.043 268.336H126.843V261.552H120.299V262.592C120.299 264.96 120.059 266.928 119.355 268.336H118.443V272.032ZM121.339 268.336C121.835 267.296 122.123 265.872 122.123 264.336V263.216H124.907V268.336H121.339ZM133.67 270.192C136.278 270.192 138.198 268.192 138.198 265.792C138.198 263.344 136.294 261.376 133.702 261.376C131.11 261.376 129.19 263.376 129.19 265.792C129.19 268.224 131.094 270.192 133.67 270.192ZM133.702 268.512C132.198 268.512 131.126 267.264 131.126 265.792C131.126 264.288 132.118 263.072 133.67 263.072C135.19 263.072 136.262 264.304 136.262 265.792C136.262 267.28 135.27 268.512 133.702 268.512ZM140.169 270H144.553C146.473 270 147.673 269.136 147.673 267.712C147.673 266.512 146.953 265.888 145.929 265.6C146.649 265.28 147.289 264.736 147.289 263.664C147.289 262.368 146.185 261.552 144.505 261.552H140.169V270ZM142.073 268.464V266.352H144.169C145.209 266.352 145.705 266.768 145.705 267.376C145.705 268.032 145.209 268.464 144.265 268.464H142.073ZM142.073 265.04V263.04H144.089C144.953 263.04 145.321 263.456 145.321 264C145.321 264.608 144.873 265.04 144.057 265.04H142.073ZM156.695 270V264.992C156.695 262.736 155.479 261.424 152.983 261.424C151.607 261.424 150.695 261.712 149.767 262.128L150.295 263.68C151.063 263.36 151.767 263.152 152.711 263.152C154.055 263.152 154.791 263.792 154.791 264.96V265.12C154.135 264.912 153.479 264.768 152.455 264.768C150.487 264.768 149.031 265.664 149.031 267.536C149.031 269.264 150.439 270.176 152.039 270.176C153.319 270.176 154.199 269.648 154.775 268.96V270H156.695ZM154.823 266.944C154.823 268 153.863 268.72 152.583 268.72C151.671 268.72 150.951 268.272 150.951 267.472C150.951 266.624 151.671 266.128 152.887 266.128C153.639 266.128 154.327 266.272 154.823 266.464V266.944ZM158.997 270H160.933V266.592H164.661V270H166.597V261.552H164.661V264.976H160.933V261.552H158.997V270ZM169.029 270H170.853L174.869 264.368V270H176.741V261.552H174.917C173.573 263.44 172.245 265.328 170.917 267.216V261.552H169.029V270ZM178.401 270H180.673L182.673 267.152H184.401V270H186.337V261.552H182.097C179.969 261.552 178.769 262.672 178.769 264.304C178.769 265.632 179.585 266.48 180.737 266.832L178.401 270ZM182.369 265.696C181.377 265.696 180.705 265.216 180.705 264.4C180.705 263.6 181.329 263.12 182.353 263.12H184.401V265.696H182.369Z" fill="black"/>
</svg>
