<svg width="220" height="276" viewBox="0 0 220 276" fill="none" xmlns="http://www.w3.org/2000/svg">
<circle cx="110" cy="110" r="109" stroke="#F0F0F0" stroke-width="2" stroke-dasharray="10 10"/>
<circle cx="109.5" cy="109.5" r="102.5" fill="#5D3128"/>
<mask id="mask0_518_247" style="mask-type:alpha" maskUnits="userSpaceOnUse" x="7" y="7" width="205" height="205">
<circle cx="109.5" cy="109.5" r="102.5" fill="#C4C4C4"/>
</mask>
<g mask="url(#mask0_518_247)">
<path d="M105.872 91.2872V1H168.681C181.33 1 226.692 42.4362 232.798 61.6277C238.904 80.8191 306.511 135.34 319.596 158.021C332.681 180.702 86.2447 247 65.7447 248.309C49.3447 249.355 -36.9326 53.8475 -49 18.8085L105.872 91.2872Z" fill="#FEAD04"/>
</g>
<circle cx="109.5" cy="109.5" r="79.5" fill="white"/>
<path d="M87.2605 133H98.7205V90.7H90.2605L77.9605 94.18L80.1805 103.18L87.2605 101.56V133ZM123.253 133.84C132.433 133.84 139.933 128.14 139.933 118.72C139.933 110.2 133.453 105.52 126.073 105.52C121.933 105.52 119.233 107.08 117.013 108.76C117.553 103.48 120.013 99.82 124.933 99.82C128.293 99.82 130.693 101.08 133.273 103L138.733 94.78C134.713 91.78 130.633 90.16 124.753 90.16C111.613 90.16 105.253 100.12 105.253 113.2C105.253 121.18 107.293 125.92 110.413 129.04C113.413 132.04 117.313 133.84 123.253 133.84ZM122.773 124.78C119.113 124.78 116.833 122.38 116.833 119.32C116.833 116.2 118.993 113.86 122.653 113.86C126.313 113.86 128.593 116.26 128.593 119.26C128.593 122.44 126.433 124.78 122.773 124.78Z" fill="#FEAD04"/>
<path d="M17.6353 248.128C17.1766 248.128 16.7233 248.069 16.2753 247.952L16.4673 246.336C16.6593 246.4 16.8726 246.432 17.1073 246.432C17.3633 246.432 17.582 246.395 17.7633 246.32C17.9553 246.235 18.1526 246.043 18.3553 245.744C18.5686 245.445 18.734 245.04 18.8513 244.528C18.9793 244.005 19.086 243.28 19.1713 242.352C19.2566 241.424 19.2993 240.309 19.2993 239.008V236.8H26.9793V248H25.0113V238.576H21.1393V239.584C21.1393 241.323 21.0646 242.768 20.9153 243.92C20.766 245.061 20.5313 245.936 20.2113 246.544C19.8913 247.141 19.5286 247.557 19.1233 247.792C18.7286 248.016 18.2326 248.128 17.6353 248.128ZM33.5177 248.192C32.2804 248.192 31.2457 247.781 30.4137 246.96C29.5924 246.139 29.1817 245.077 29.1817 243.776C29.1817 242.549 29.571 241.509 30.3497 240.656C31.1284 239.803 32.115 239.376 33.3097 239.376C34.5897 239.376 35.5817 239.813 36.2857 240.688C37.0004 241.552 37.3577 242.629 37.3577 243.92C37.3577 244.155 37.347 244.336 37.3257 244.464H31.1177C31.2244 245.136 31.4964 245.664 31.9337 246.048C32.371 246.421 32.9097 246.608 33.5497 246.608C34.3817 246.608 35.1444 246.272 35.8377 245.6L36.9737 246.608C36.099 247.664 34.947 248.192 33.5177 248.192ZM31.1017 243.184H35.4377C35.3737 242.533 35.155 242 34.7817 241.584C34.4084 241.168 33.9124 240.96 33.2937 240.96C32.707 240.96 32.2164 241.168 31.8217 241.584C31.427 241.989 31.187 242.523 31.1017 243.184ZM41.1099 248V241.216H38.3899V239.552H45.7819V241.216H43.0619V248H41.1099ZM56.1304 248.192C54.8504 248.192 53.7838 247.765 52.9304 246.912C52.0771 246.059 51.6504 245.019 51.6504 243.792C51.6504 242.565 52.0824 241.525 52.9464 240.672C53.8104 239.808 54.8824 239.376 56.1624 239.376C57.4424 239.376 58.5091 239.803 59.3624 240.656C60.2264 241.509 60.6584 242.555 60.6584 243.792C60.6584 245.008 60.2264 246.048 59.3624 246.912C58.4984 247.765 57.4211 248.192 56.1304 248.192ZM56.1624 246.512C56.9304 246.512 57.5491 246.251 58.0184 245.728C58.4878 245.205 58.7224 244.56 58.7224 243.792C58.7224 243.035 58.4771 242.395 57.9864 241.872C57.4958 241.339 56.8771 241.072 56.1304 241.072C55.3731 241.072 54.7598 241.333 54.2904 241.856C53.8211 242.379 53.5864 243.024 53.5864 243.792C53.5864 244.539 53.8318 245.179 54.3224 245.712C54.8131 246.245 55.4264 246.512 56.1624 246.512ZM62.6301 248V239.552H70.1661V248H68.2301V241.216H64.5661V248H62.6301ZM72.5988 248V239.552H74.5348V242.512H76.3108C77.3135 242.512 78.1241 242.736 78.7428 243.184C79.3615 243.632 79.6708 244.299 79.6708 245.184C79.6708 246.059 79.3828 246.747 78.8068 247.248C78.2308 247.749 77.4468 248 76.4548 248H72.5988ZM74.5348 246.432H76.1988C76.6895 246.432 77.0681 246.325 77.3348 246.112C77.6015 245.899 77.7348 245.589 77.7348 245.184C77.7348 244.811 77.5961 244.523 77.3188 244.32C77.0521 244.117 76.6681 244.016 76.1668 244.016H74.5348V246.432ZM80.9508 248V239.552H82.8868V248H80.9508ZM87.1256 248V241.216H84.4056V239.552H91.7976V241.216H89.0776V248H87.1256ZM100.421 248H98.5012V246.96C97.8185 247.771 96.9065 248.176 95.7652 248.176C94.9225 248.176 94.2079 247.947 93.6212 247.488C93.0452 247.019 92.7572 246.368 92.7572 245.536C92.7572 244.629 93.0719 243.941 93.7012 243.472C94.3305 243.003 95.1572 242.768 96.1812 242.768C97.0025 242.768 97.7812 242.885 98.5172 243.12V242.96C98.5172 242.373 98.3359 241.925 97.9732 241.616C97.6212 241.307 97.1092 241.152 96.4372 241.152C95.6692 241.152 94.8639 241.328 94.0212 241.68L93.4932 240.128C94.5385 239.659 95.6105 239.424 96.7092 239.424C97.9359 239.424 98.8585 239.733 99.4772 240.352C100.107 240.971 100.421 241.851 100.421 242.992V248ZM98.5492 244.944V244.464C97.9732 244.24 97.3279 244.128 96.6132 244.128C96.0052 244.128 95.5305 244.245 95.1892 244.48C94.8479 244.715 94.6772 245.045 94.6772 245.472C94.6772 245.856 94.8319 246.16 95.1412 246.384C95.4505 246.608 95.8399 246.72 96.3092 246.72C96.9599 246.72 97.4932 246.555 97.9092 246.224C98.3359 245.893 98.5492 245.467 98.5492 244.944ZM107.521 250.56V239.552H109.457V240.96C110.203 239.904 111.158 239.376 112.321 239.376C113.387 239.376 114.31 239.776 115.089 240.576C115.867 241.365 116.257 242.437 116.257 243.792C116.257 245.125 115.867 246.192 115.089 246.992C114.31 247.781 113.387 248.176 112.321 248.176C111.158 248.176 110.203 247.68 109.457 246.688V250.56H107.521ZM111.873 246.496C112.555 246.496 113.126 246.245 113.585 245.744C114.054 245.243 114.289 244.581 114.289 243.76C114.289 242.96 114.054 242.309 113.585 241.808C113.115 241.307 112.545 241.056 111.873 241.056C111.201 241.056 110.619 241.312 110.129 241.824C109.649 242.336 109.409 242.992 109.409 243.792C109.409 244.581 109.649 245.232 110.129 245.744C110.619 246.245 111.201 246.496 111.873 246.496ZM125.327 248H123.407V246.96C122.725 247.771 121.813 248.176 120.671 248.176C119.829 248.176 119.114 247.947 118.527 247.488C117.951 247.019 117.663 246.368 117.663 245.536C117.663 244.629 117.978 243.941 118.607 243.472C119.237 243.003 120.063 242.768 121.087 242.768C121.909 242.768 122.687 242.885 123.423 243.12V242.96C123.423 242.373 123.242 241.925 122.879 241.616C122.527 241.307 122.015 241.152 121.343 241.152C120.575 241.152 119.77 241.328 118.927 241.68L118.399 240.128C119.445 239.659 120.517 239.424 121.615 239.424C122.842 239.424 123.765 239.733 124.383 240.352C125.013 240.971 125.327 241.851 125.327 242.992V248ZM123.455 244.944V244.464C122.879 244.24 122.234 244.128 121.519 244.128C120.911 244.128 120.437 244.245 120.095 244.48C119.754 244.715 119.583 245.045 119.583 245.472C119.583 245.856 119.738 246.16 120.047 246.384C120.357 246.608 120.746 246.72 121.215 246.72C121.866 246.72 122.399 246.555 122.815 246.224C123.242 245.893 123.455 245.467 123.455 244.944ZM130.51 248.192C129.059 248.192 127.827 247.76 126.814 246.896L127.726 245.616C128.515 246.288 129.401 246.624 130.382 246.624C130.83 246.624 131.209 246.517 131.518 246.304C131.827 246.08 131.982 245.797 131.982 245.456C131.982 245.136 131.833 244.88 131.534 244.688C131.235 244.496 130.814 244.4 130.27 244.4H129.23V243.008H130.27C130.718 243.008 131.075 242.907 131.342 242.704C131.619 242.491 131.758 242.224 131.758 241.904C131.758 241.616 131.625 241.387 131.358 241.216C131.102 241.035 130.771 240.944 130.366 240.944C129.427 240.944 128.627 241.232 127.966 241.808L127.102 240.592C128.03 239.781 129.177 239.376 130.542 239.376C131.47 239.376 132.227 239.589 132.814 240.016C133.401 240.443 133.694 240.987 133.694 241.648C133.694 242.544 133.251 243.184 132.366 243.568C133.39 243.931 133.902 244.613 133.902 245.616C133.902 246.341 133.587 246.955 132.958 247.456C132.329 247.947 131.513 248.192 130.51 248.192ZM135.911 250.56V239.552H137.847V240.96C138.594 239.904 139.549 239.376 140.711 239.376C141.778 239.376 142.701 239.776 143.479 240.576C144.258 241.365 144.647 242.437 144.647 243.792C144.647 245.125 144.258 246.192 143.479 246.992C142.701 247.781 141.778 248.176 140.711 248.176C139.549 248.176 138.594 247.68 137.847 246.688V250.56H135.911ZM140.263 246.496C140.946 246.496 141.517 246.245 141.975 245.744C142.445 245.243 142.679 244.581 142.679 243.76C142.679 242.96 142.445 242.309 141.975 241.808C141.506 241.307 140.935 241.056 140.263 241.056C139.591 241.056 139.01 241.312 138.519 241.824C138.039 242.336 137.799 242.992 137.799 243.792C137.799 244.581 138.039 245.232 138.519 245.744C139.01 246.245 139.591 246.496 140.263 246.496ZM153.718 248H151.798V246.96C151.115 247.771 150.203 248.176 149.062 248.176C148.219 248.176 147.505 247.947 146.918 247.488C146.342 247.019 146.054 246.368 146.054 245.536C146.054 244.629 146.369 243.941 146.998 243.472C147.627 243.003 148.454 242.768 149.478 242.768C150.299 242.768 151.078 242.885 151.814 243.12V242.96C151.814 242.373 151.633 241.925 151.27 241.616C150.918 241.307 150.406 241.152 149.734 241.152C148.966 241.152 148.161 241.328 147.318 241.68L146.79 240.128C147.835 239.659 148.907 239.424 150.006 239.424C151.233 239.424 152.155 239.733 152.774 240.352C153.403 240.971 153.718 241.851 153.718 242.992V248ZM151.846 244.944V244.464C151.27 244.24 150.625 244.128 149.91 244.128C149.302 244.128 148.827 244.245 148.486 244.48C148.145 244.715 147.974 245.045 147.974 245.472C147.974 245.856 148.129 246.16 148.438 246.384C148.747 246.608 149.137 246.72 149.606 246.72C150.257 246.72 150.79 246.555 151.206 246.224C151.633 245.893 151.846 245.467 151.846 244.944ZM160.149 246.512C160.863 246.512 161.445 246.267 161.893 245.776C162.351 245.275 162.581 244.656 162.581 243.92C162.581 243.195 162.341 242.581 161.861 242.08C161.391 241.568 160.81 241.312 160.117 241.312C159.413 241.312 158.831 241.563 158.373 242.064C157.925 242.565 157.701 243.184 157.701 243.92C157.701 244.645 157.935 245.259 158.405 245.76C158.874 246.261 159.455 246.512 160.149 246.512ZM160.117 248.192C158.751 248.192 157.685 247.76 156.917 246.896C156.149 246.032 155.765 244.821 155.765 243.264C155.765 242.763 155.775 242.325 155.797 241.952C155.829 241.568 155.882 241.157 155.957 240.72C156.031 240.272 156.143 239.883 156.293 239.552C156.453 239.221 156.65 238.907 156.885 238.608C157.13 238.299 157.439 238.043 157.813 237.84C158.197 237.627 158.639 237.467 159.141 237.36L163.749 236.4L164.069 237.952L159.461 238.96C158.693 239.12 158.143 239.408 157.813 239.824C157.482 240.229 157.29 240.741 157.237 241.36C157.493 240.933 157.893 240.565 158.437 240.256C158.991 239.936 159.674 239.776 160.485 239.776C161.583 239.776 162.527 240.176 163.317 240.976C164.117 241.765 164.517 242.736 164.517 243.888C164.517 245.072 164.095 246.085 163.253 246.928C162.421 247.771 161.375 248.192 160.117 248.192ZM170.505 248.192C169.225 248.192 168.159 247.765 167.305 246.912C166.452 246.059 166.025 245.019 166.025 243.792C166.025 242.565 166.457 241.525 167.321 240.672C168.185 239.808 169.257 239.376 170.537 239.376C171.817 239.376 172.884 239.803 173.737 240.656C174.601 241.509 175.033 242.555 175.033 243.792C175.033 245.008 174.601 246.048 173.737 246.912C172.873 247.765 171.796 248.192 170.505 248.192ZM170.537 246.512C171.305 246.512 171.924 246.251 172.393 245.728C172.863 245.205 173.097 244.56 173.097 243.792C173.097 243.035 172.852 242.395 172.361 241.872C171.871 241.339 171.252 241.072 170.505 241.072C169.748 241.072 169.135 241.333 168.665 241.856C168.196 242.379 167.961 243.024 167.961 243.792C167.961 244.539 168.207 245.179 168.697 245.712C169.188 246.245 169.801 246.512 170.537 246.512ZM178.813 248V241.216H176.093V239.552H183.485V241.216H180.765V248H178.813ZM189.037 248.192C187.757 248.192 186.69 247.765 185.837 246.912C184.983 246.059 184.557 245.019 184.557 243.792C184.557 242.565 184.989 241.525 185.853 240.672C186.717 239.808 187.789 239.376 189.069 239.376C190.349 239.376 191.415 239.803 192.269 240.656C193.133 241.509 193.565 242.555 193.565 243.792C193.565 245.008 193.133 246.048 192.269 246.912C191.405 247.765 190.327 248.192 189.037 248.192ZM189.069 246.512C189.837 246.512 190.455 246.251 190.925 245.728C191.394 245.205 191.629 244.56 191.629 243.792C191.629 243.035 191.383 242.395 190.893 241.872C190.402 241.339 189.783 241.072 189.037 241.072C188.279 241.072 187.666 241.333 187.197 241.856C186.727 242.379 186.493 243.024 186.493 243.792C186.493 244.539 186.738 245.179 187.229 245.712C187.719 246.245 188.333 246.512 189.069 246.512ZM195.536 248V239.552H197.456V243.6L201.136 239.552H203.408L200.128 243.104L203.68 248H201.392L198.832 244.512L197.456 245.968V248H195.536ZM58.9973 270V261.552H60.8853V267.216C62.6559 264.699 63.9893 262.811 64.8853 261.552H66.7093V270H64.8373V264.368L60.8213 270H58.9973ZM73.9348 270V261.552H78.2708C79.1134 261.552 79.7854 261.744 80.2868 262.128C80.7988 262.501 81.0548 263.013 81.0548 263.664C81.0548 264.549 80.6014 265.195 79.6948 265.6C80.8574 265.931 81.4388 266.635 81.4388 267.712C81.4388 268.427 81.1561 268.987 80.5908 269.392C80.0361 269.797 79.2788 270 78.3188 270H73.9348ZM75.8388 268.464H78.0308C78.4894 268.464 78.8414 268.368 79.0868 268.176C79.3428 267.973 79.4708 267.707 79.4708 267.376C79.4708 267.056 79.3374 266.805 79.0708 266.624C78.8148 266.443 78.4361 266.352 77.9348 266.352H75.8388V268.464ZM75.8388 265.04H77.8228C78.2174 265.04 78.5268 264.944 78.7508 264.752C78.9748 264.56 79.0868 264.309 79.0868 264C79.0868 263.712 78.9854 263.483 78.7828 263.312C78.5801 263.131 78.2708 263.04 77.8548 263.04H75.8388V265.04ZM83.3723 270V261.552H85.3083V264.976H89.0363V261.552H90.9722V270H89.0363V266.592H85.3083V270H83.3723ZM97.2755 270.192C96.0382 270.192 95.0035 269.781 94.1715 268.96C93.3502 268.139 92.9395 267.077 92.9395 265.776C92.9395 264.549 93.3288 263.509 94.1075 262.656C94.8862 261.803 95.8728 261.376 97.0675 261.376C98.3475 261.376 99.3395 261.813 100.044 262.688C100.758 263.552 101.116 264.629 101.116 265.92C101.116 266.155 101.105 266.336 101.084 266.464H94.8755C94.9822 267.136 95.2542 267.664 95.6915 268.048C96.1288 268.421 96.6675 268.608 97.3075 268.608C98.1395 268.608 98.9022 268.272 99.5955 267.6L100.732 268.608C99.8568 269.664 98.7048 270.192 97.2755 270.192ZM94.8595 265.184H99.1955C99.1315 264.533 98.9128 264 98.5395 263.584C98.1662 263.168 97.6702 262.96 97.0515 262.96C96.4648 262.96 95.9742 263.168 95.5795 263.584C95.1848 263.989 94.9448 264.523 94.8595 265.184ZM102.084 272.032V268.336H102.996C103.625 267.077 103.94 265.163 103.94 262.592V261.552H110.484V268.336H111.684L111.428 272.032H109.812V270H103.892L103.7 272.032H102.084ZM104.98 268.336H108.548V263.216H105.764V264.336C105.764 265.904 105.502 267.237 104.98 268.336ZM113.294 272.56V261.552H115.23V262.96C115.977 261.904 116.931 261.376 118.094 261.376C119.161 261.376 120.083 261.776 120.862 262.576C121.641 263.365 122.03 264.437 122.03 265.792C122.03 267.125 121.641 268.192 120.862 268.992C120.083 269.781 119.161 270.176 118.094 270.176C116.931 270.176 115.977 269.68 115.23 268.688V272.56H113.294ZM117.646 268.496C118.329 268.496 118.899 268.245 119.358 267.744C119.827 267.243 120.062 266.581 120.062 265.76C120.062 264.96 119.827 264.309 119.358 263.808C118.889 263.307 118.318 263.056 117.646 263.056C116.974 263.056 116.393 263.312 115.902 263.824C115.422 264.336 115.182 264.992 115.182 265.792C115.182 266.581 115.422 267.232 115.902 267.744C116.393 268.245 116.974 268.496 117.646 268.496ZM127.885 270.192C126.648 270.192 125.613 269.781 124.781 268.96C123.96 268.139 123.549 267.077 123.549 265.776C123.549 264.549 123.938 263.509 124.717 262.656C125.496 261.803 126.482 261.376 127.677 261.376C128.957 261.376 129.949 261.813 130.653 262.688C131.368 263.552 131.725 264.629 131.725 265.92C131.725 266.155 131.714 266.336 131.693 266.464H125.485C125.592 267.136 125.864 267.664 126.301 268.048C126.738 268.421 127.277 268.608 127.917 268.608C128.749 268.608 129.512 268.272 130.205 267.6L131.341 268.608C130.466 269.664 129.314 270.192 127.885 270.192ZM125.469 265.184H129.805C129.741 264.533 129.522 264 129.149 263.584C128.776 263.168 128.28 262.96 127.661 262.96C127.074 262.96 126.584 263.168 126.189 263.584C125.794 263.989 125.554 264.523 125.469 265.184ZM133.669 270V261.552H135.605V264.976H139.333V261.552H141.269V270H139.333V266.592H135.605V270H133.669ZM143.7 270V261.552H145.588V267.216C147.359 264.699 148.692 262.811 149.588 261.552H151.412V270H149.54V264.368L145.524 270H143.7ZM153.073 270L155.409 266.832C154.812 266.651 154.332 266.347 153.969 265.92C153.617 265.483 153.441 264.944 153.441 264.304C153.441 263.472 153.734 262.805 154.321 262.304C154.908 261.803 155.724 261.552 156.769 261.552H161.009V270H159.073V267.152H157.345L155.345 270H153.073ZM157.041 265.696H159.073V263.12H157.025C156.513 263.12 156.108 263.237 155.809 263.472C155.521 263.696 155.377 264.005 155.377 264.4C155.377 264.805 155.526 265.125 155.825 265.36C156.134 265.584 156.54 265.696 157.041 265.696Z" fill="black"/>
</svg>
